HIERARCHY
ROOT COG
{
	OFFSET 0.000000 0.103240 1.001711
	CHANNELS 6 Xposition Yposition Zposition Xrotation Yrotation Zrotation
	JOINT Back
	{
		OFFSET -0.000000 -0.047720 -0.000292
		CHANNELS 3 Xrotation Yrotation Zrotation
		JOINT Neck
		{
			OFFSET 0.000000 0.009902 0.479940
			CHANNELS 3 Xrotation Yrotation Zrotation
			JOINT Head
			{
				OFFSET 0.000000 0.000000 0.114125
				CHANNELS 3 Xrotation Yrotation Zrotation
				End Site
				{
					OFFSET -0.000000 -0.035047 0.203765
				}
			}
		}
		JOINT Shoulder.Left
		{
			OFFSET 0.000000 0.009902 0.479940
			CHANNELS 3 Xrotation Yrotation Zrotation
			JOINT Upperarm.Left
			{
				OFFSET 0.171189 0.023766 0.000000
				CHANNELS 3 Xrotation Yrotation Zrotation
				JOINT Forearm.Left
				{
					OFFSET 0.299995 0.024210 0.001595
					CHANNELS 3 Xrotation Yrotation Zrotation
					JOINT Hand.Left
					{
						OFFSET 0.246916 -0.014695 0.015059
						CHANNELS 3 Xrotation Yrotation Zrotation
						JOINT Fingers1.Left
						{
							OFFSET 0.111888 -0.008712 0.003838
							CHANNELS 6 Xposition Yposition Zposition Xrotation Yrotation Zrotation
							JOINT Fingers2.Left
							{
								OFFSET 0.049755 -0.000245 0.000000
								CHANNELS 3 Xrotation Yrotation Zrotation
								End Site
								{
									OFFSET 0.051310 -0.000955 0.000000
								}
							}
						}
						JOINT Thumb1.Left
						{
							OFFSET 0.042902 -0.045156 -0.007728
							CHANNELS 6 Xposition Yposition Zposition Xrotation Yrotation Zrotation
							JOINT Thumb2.Left
							{
								OFFSET 0.012928 -0.056380 0.001561
								CHANNELS 3 Xrotation Yrotation Zrotation
								End Site
								{
									OFFSET 0.009035 -0.037598 0.001873
								}
							}
						}
					}
				}
			}
		}
		JOINT Shoulder.Right
		{
			OFFSET 0.000000 0.009902 0.479940
			CHANNELS 3 Xrotation Yrotation Zrotation
			JOINT Upperarm.Right
			{
				OFFSET -0.171189 0.023766 0.000000
				CHANNELS 3 Xrotation Yrotation Zrotation
				JOINT Forearm.Right
				{
					OFFSET -0.299995 0.024210 0.001595
					CHANNELS 3 Xrotation Yrotation Zrotation
					JOINT Hand.Right
					{
						OFFSET -0.246916 -0.014695 0.015059
						CHANNELS 3 Xrotation Yrotation Zrotation
						JOINT Fingers1.Right
						{
							OFFSET -0.111888 -0.008712 0.003838
							CHANNELS 3 Xrotation Yrotation Zrotation
							JOINT Fingers2.Right
							{
								OFFSET -0.049755 -0.000245 0.000000
								CHANNELS 3 Xrotation Yrotation Zrotation
								End Site
								{
									OFFSET -0.051310 -0.000955 0.000000
								}
							}
						}
						JOINT Thumb1.Right
						{
							OFFSET -0.042902 -0.045156 -0.007728
							CHANNELS 6 Xposition Yposition Zposition Xrotation Yrotation Zrotation
							JOINT Thumb2.Right
							{
								OFFSET -0.012928 -0.056380 0.001561
								CHANNELS 3 Xrotation Yrotation Zrotation
								End Site
								{
									OFFSET -0.009035 -0.037598 0.001873
								}
							}
						}
					}
				}
			}
		}
	}
	JOINT Hip
	{
		OFFSET -0.000000 -0.047720 -0.000292
		CHANNELS 3 Xrotation Yrotation Zrotation
		JOINT Thigh.Left
		{
			OFFSET 0.099312 -0.010710 -0.032880
			CHANNELS 6 Xposition Yposition Zposition Xrotation Yrotation Zrotation
			JOINT Shin.Left
			{
				OFFSET 0.042563 -0.006785 -0.409860
				CHANNELS 3 Xrotation Yrotation Zrotation
				JOINT Foot.Left
				{
					OFFSET 0.052065 0.047751 -0.491449
					CHANNELS 3 Xrotation Yrotation Zrotation
					JOINT Toes.Left
					{
						OFFSET 0.000155 -0.140649 -0.037025
						CHANNELS 3 Xrotation Yrotation Zrotation
						End Site
						{
							OFFSET -0.000003 -0.078803 -0.008141
						}
					}
				}
			}
		}
		JOINT Thigh.Right
		{
			OFFSET -0.099312 -0.010710 -0.032880
			CHANNELS 6 Xposition Yposition Zposition Xrotation Yrotation Zrotation
			JOINT Shin.Right
			{
				OFFSET -0.042563 -0.006785 -0.409860
				CHANNELS 3 Xrotation Yrotation Zrotation
				JOINT Foot.Right
				{
					OFFSET -0.052065 0.047751 -0.491449
					CHANNELS 3 Xrotation Yrotation Zrotation
					JOINT Toes.Right
					{
						OFFSET -0.000155 -0.140649 -0.037025
						CHANNELS 3 Xrotation Yrotation Zrotation
						End Site
						{
							OFFSET 0.000003 -0.078803 -0.008141
						}
					}
				}
			}
		}
	}
}
MOTION
Frames: 9
Frame Time: 0.040000
0.000000 0.103245 1.000758 -0.000000 0.000000 0.000000 3.215432 0.000000 -15.308704 -0.000000 -0.000000 17.035564 -0.939817 0.028333 0.000232 -0.000000 -0.000000 -0.000001 -4.606422 75.633663 4.598184 1.752041 1.081290 -23.345831 -2.834290 10.943310 -20.558548 0.111888 -0.008712 0.003838 -0.000000 -0.000000 -0.000000 -0.000002 -0.000001 0.000001 0.042902 -0.045156 -0.007728 -0.000000 -0.000001 -0.000001 0.000001 -0.000003 0.000000 -0.000000 0.000000 -0.000000 20.028135 -72.215809 -3.104825 2.473675 -1.285147 31.804694 -1.212272 -4.616922 -28.834221 0.000000 -0.000000 0.000001 0.000001 -0.000000 0.000000 -0.042902 -0.045156 -0.007728 -0.000000 0.000001 0.000002 0.000001 0.000001 0.000002 -0.000000 0.000002 8.139991 0.099312 -0.010710 -0.032880 24.340709 5.702801 -2.573805 0.000002 -0.000000 0.000000 0.000002 -0.000001 -0.000001 0.000000 0.000001 0.000001 -0.099312 -0.010710 -0.032880 -16.595809 -2.530802 -8.776399 0.000001 -0.000000 -0.000000 -0.000001 -0.000000 0.000000 -0.000001 -0.000000 -0.000000 
-0.001055 0.103242 1.001331 -0.000000 0.000000 0.000000 3.071325 -0.020591 -15.081309 -0.000000 -0.000000 16.855160 -0.829133 0.024518 0.001626 -0.000000 -0.000000 0.000000 -4.463804 75.590892 4.584524 1.747248 1.079542 -23.288321 -2.890665 11.026138 -20.549541 0.111888 -0.008712 0.003838 -0.000000 -0.000000 -0.000001 -0.000001 -0.000002 0.000002 0.042902 -0.045156 -0.007728 -0.000000 -0.000001 -0.000001 0.000001 -0.000004 0.000001 -0.000000 -0.000000 0.000001 19.820304 -72.209265 -3.140711 2.415626 -1.272934 31.136097 -1.371001 -5.018687 -28.583556 -0.000000 -0.000001 0.000001 -0.000001 -0.000000 0.000001 -0.042902 -0.045156 -0.007728 -0.000000 0.000001 0.000002 0.000000 0.000003 0.000000 0.007355 -0.099272 8.022059 0.099312 -0.010710 -0.032880 23.861167 5.790770 -2.393301 1.629990 -0.170393 0.158319 0.392191 -0.052575 -0.009221 0.000001 -0.000000 -0.000000 -0.099312 -0.010710 -0.032880 -16.336199 -2.587828 -8.599310 -0.023217 -0.002460 0.002220 -0.019579 -0.000540 0.004455 0.000001 0.000000 0.000000 
-0.004229 0.103231 1.003055 -0.000000 0.000000 0.000000 2.637687 -0.085139 -14.374265 -0.000000 -0.000000 16.309370 -0.495991 0.013051 0.005865 0.000000 0.000000 -0.000001 -4.035245 75.461494 4.546039 1.732784 1.074236 -23.114702 -3.060690 11.279806 -20.511777 0.111888 -0.008712 0.003838 0.000000 -0.000001 -0.000001 -0.000001 -0.000000 -0.000000 0.042902 -0.045156 -0.007728 0.000001 -0.000002 -0.000000 -0.000001 -0.000003 -0.000002 0.000000 -0.000000 -0.000000 19.192097 -72.189226 -3.248684 2.241251 -1.231964 29.117028 -1.843105 -6.233948 -27.815896 -0.000001 0.000000 0.000001 -0.000001 0.000000 0.000000 -0.042902 -0.045156 -0.007728 -0.000001 0.000002 0.000001 -0.000000 0.000001 -0.000001 0.028217 -0.398100 7.655647 0.099312 -0.010710 -0.032880 22.365577 6.044372 -1.846429 6.618141 -0.662562 0.671655 1.573575 -0.212574 -0.029806 0.000002 -0.000000 0.000001 -0.099312 -0.010710 -0.032880 -15.528785 -2.757214 -8.062519 -0.093393 -0.009900 0.008925 -0.078782 -0.001816 0.018020 -0.000002 -0.000000 -0.000000 
-0.009391 0.103214 1.005859 -0.000000 0.000000 0.000000 1.932909 -0.199884 -13.170970 -0.000000 -0.000000 15.395170 0.045747 -0.005542 0.012901 -0.000000 -0.000000 -0.000001 -3.326935 75.244765 4.490880 1.708584 1.065246 -22.823820 -3.338323 11.702281 -20.424796 0.111888 -0.008712 0.003838 -0.000001 0.000000 -0.000000 -0.000000 -0.000000 0.000001 0.042902 -0.045156 -0.007728 -0.000000 -0.000001 -0.000000 0.000001 -0.000003 -0.000001 -0.000000 0.000000 0.000000 18.141794 -72.154877 -3.427607 1.959428 -1.151768 25.814292 -2.588083 -8.228868 -26.539904 -0.000000 -0.000000 0.000001 0.000001 -0.000000 0.000001 -0.042902 -0.045156 -0.007728 -0.000000 0.000001 0.000000 0.000001 0.000003 -0.000000 0.057850 -0.884266 7.032907 0.099312 -0.010710 -0.032880 19.806691 6.420808 -0.944066 14.971281 -1.379985 1.619559 3.497479 -0.476697 -0.044477 0.000002 -0.000001 0.000000 -0.099312 -0.010710 -0.032880 -14.153462 -3.022086 -7.178895 -0.210748 -0.022361 0.020117 -0.177828 -0.003220 0.040915 -0.000000 0.000000 0.000000 
-0.016142 0.103192 1.009526 -0.000000 0.000000 0.000000 1.012347 -0.370146 -11.499210 -0.000000 -0.000000 14.116410 0.754416 -0.029762 0.022370 0.000000 -0.000000 -0.000001 -2.355277 74.941689 4.432388 1.674674 1.052410 -22.415252 -3.704285 12.272804 -20.264196 0.111888 -0.008712 0.003838 0.000000 -0.000000 0.000000 0.000001 0.000000 -0.000000 0.042902 -0.045156 -0.007728 -0.000000 -0.000001 -0.000001 0.000000 -0.000003 -0.000001 -0.000000 -0.000000 -0.000001 16.676836 -72.105146 -3.673776 1.596156 -1.021625 21.464952 -3.515915 -10.871839 -24.818688 -0.000001 0.000000 0.000000 0.000001 -0.000000 0.000001 -0.042902 -0.045156 -0.007728 0.000000 0.000001 -0.000000 0.000000 0.000003 0.000004 0.087982 -1.520619 6.169146 0.099312 -0.010710 -0.032880 16.228685 6.839903 0.259256 26.253116 -2.114608 3.043055 6.018284 -0.827735 -0.028712 0.000000 -0.000000 -0.000000 -0.099312 -0.010710 -0.032880 -12.240840 -3.345356 -6.002945 -0.374574 -0.039796 0.035699 -0.316144 -0.004010 0.073213 0.000001 0.000000 -0.000000 
-0.023790 0.103166 1.013680 -0.000000 0.000000 0.000000 -0.027037 -0.593229 -9.446923 -0.000000 -0.000000 12.486325 1.557295 -0.057059 0.033459 -0.000000 0.000000 -0.000000 -1.146901 74.555538 4.387489 1.631173 1.035542 -21.889530 -4.124387 12.947993 -20.006411 0.111888 -0.008712 0.003838 0.000001 0.000001 -0.000003 -0.000001 -0.000001 -0.000002 0.042902 -0.045156 -0.007728 -0.000000 -0.000001 -0.000003 -0.000000 -0.000001 0.000002 -0.000000 0.000000 0.000001 14.816641 -72.039023 -3.980381 1.195768 -0.840324 16.511735 -4.498775 -13.909487 -22.772580 -0.000000 -0.000000 0.000001 0.000002 0.000001 0.000000 -0.042902 -0.045156 -0.007728 0.000000 0.000002 -0.000001 0.000002 0.000001 0.000003 0.108951 -2.241799 5.110406 0.099312 -0.010710 -0.032880 11.810325 7.198789 1.646772 39.308292 -2.597409 4.829053 8.877698 -1.230989 0.043065 -0.000000 0.000000 0.000000 -0.099312 -0.010710 -0.032880 -9.892102 -3.675930 -4.640722 -0.582976 -0.062038 0.055449 -0.492138 -0.003299 0.114795 0.000000 0.000000 -0.000000 
-0.031437 0.103141 1.017833 -0.000000 0.000000 0.000000 -1.059777 -0.851870 -7.157578 0.000000 -0.000000 10.530077 2.360177 -0.084197 0.044929 0.000000 0.000000 0.000000 0.262060 74.092574 4.374240 1.578325 1.014423 -21.248285 -4.553728 13.666571 -19.635587 0.111888 -0.008712 0.003838 0.000000 0.000000 -0.000003 -0.000000 -0.000000 -0.000004 0.042902 -0.045156 -0.007728 0.000000 -0.000001 -0.000001 -0.000000 -0.000003 -0.000002 0.000000 0.000000 0.000000 12.595219 -71.955695 -4.337375 0.811663 -0.624590 11.548387 -5.404297 -16.992920 -20.561074 0.000000 -0.000000 -0.000001 0.000000 0.000000 0.000000 -0.042902 -0.045156 -0.007728 -0.000001 0.000001 -0.000000 0.000001 0.000001 -0.000003 0.113443 -2.962570 3.930802 0.099312 -0.010710 -0.032880 6.863862 7.406549 3.044926 52.381271 -2.664344 6.679328 11.738448 -1.638493 0.188169 0.000001 0.000000 0.000000 -0.099312 -0.010710 -0.032880 -7.275064 -3.964517 -3.239589 -0.832671 -0.088785 0.079006 -0.702963 -0.000054 0.165301 -0.000000 -0.000001 -0.000000 
-0.038188 0.103118 1.021500 -0.000000 0.000000 0.000000 -1.961753 -1.114127 -4.799275 -0.000000 0.000000 8.286812 3.068854 -0.108015 0.055368 -0.000000 -0.000000 0.000000 1.827584 73.562490 4.408935 1.516504 0.988846 -20.494474 -4.946469 14.363280 -19.148492 0.111888 -0.008712 0.003838 -0.000000 0.000000 -0.000004 0.000000 0.000000 -0.000002 0.042902 -0.045156 -0.007728 -0.000000 -0.000001 -0.000002 -0.000000 -0.000001 -0.000001 -0.000000 -0.000000 0.000000 10.063030 -71.854977 -4.731526 0.489577 -0.407412 7.173374 -6.135308 -19.759261 -18.348719 -0.000000 -0.000001 0.000002 -0.000000 -0.000000 -0.000001 -0.042902 -0.045156 -0.007728 -0.000001 -0.000001 0.000003 0.000001 0.000003 -0.000000 0.099617 -3.597266 2.716923 0.099312 -0.010710 -0.032880 1.767074 7.420117 4.263212 63.749359 -2.380732 8.265465 14.263015 -2.001625 0.409295 -0.000000 -0.000000 -0.000000 -0.099312 -0.010710 -0.032880 -4.587965 -4.180949 -1.955162 -1.118832 -0.119564 0.105861 -0.944375 0.006889 0.224087 0.000000 0.000001 0.000000 
-0.043350 0.103101 1.024304 -0.000000 0.000000 0.000000 -2.639788 -1.341375 -2.523714 0.000000 0.000000 5.810608 3.610604 -0.126135 0.063546 0.000000 0.000000 -0.000000 3.499963 72.978618 4.503300 1.446242 0.958605 -19.632634 -5.265868 14.984342 -18.554233 0.111888 -0.008712 0.003838 0.000000 0.000000 0.000000 -0.000000 -0.000000 0.000001 0.042902 -0.045156 -0.007728 -0.000000 -0.000001 0.000001 -0.000001 -0.000002 -0.000002 0.000000 -0.000000 -0.000000 7.287182 -71.737723 -5.147012 0.255813 -0.225788 3.840599 -6.651069 -21.921362 -16.273264 -0.000000 0.000000 0.000001 -0.000000 0.000001 0.000000 -0.042902 -0.045156 -0.007728 -0.000000 0.000002 0.000001 -0.000000 0.000002 -0.000001 0.071326 -4.079593 1.547243 0.099312 -0.010710 -0.032880 -3.136819 7.254363 5.147057 72.326540 -1.962172 9.408820 16.192446 -2.284523 0.696126 -0.000000 0.000000 0.000001 -0.099312 -0.010710 -0.032880 -2.009765 -4.320974 -0.913443 -1.435056 -0.153733 0.135361 -1.210652 0.018790 0.290202 0.000000 -0.000000 0.000000 
